<svg width="20" height="20" viewBox="0 0 20 20" fill="none" xmlns="http://www.w3.org/2000/svg">
<path fill-rule="evenodd" clip-rule="evenodd" d="M9.99988 13.3329C9.80988 13.3329 9.62072 13.2687 9.46655 13.1396L4.46655 8.97291C4.11322 8.67875 4.06488 8.15291 4.35988 7.79958C4.65405 7.44625 5.17905 7.39875 5.53322 7.69291L10.0091 11.4229L14.4774 7.82708C14.8357 7.53875 15.3607 7.59541 15.6491 7.95375C15.9374 8.31208 15.8807 8.83625 15.5224 9.12541L10.5224 13.1487C10.3699 13.2712 10.1849 13.3329 9.99988 13.3329Z" fill="white"/>
<mask id="mask0" mask-type="alpha" maskUnits="userSpaceOnUse" x="4" y="7" width="12" height="7">
<path fill-rule="evenodd" clip-rule="evenodd" d="M9.99988 13.3329C9.80988 13.3329 9.62072 13.2687 9.46655 13.1396L4.46655 8.97291C4.11322 8.67875 4.06488 8.15291 4.35988 7.79958C4.65405 7.44625 5.17905 7.39875 5.53322 7.69291L10.0091 11.4229L14.4774 7.82708C14.8357 7.53875 15.3607 7.59541 15.6491 7.95375C15.9374 8.31208 15.8807 8.83625 15.5224 9.12541L10.5224 13.1487C10.3699 13.2712 10.1849 13.3329 9.99988 13.3329Z" fill="white"/>
</mask>
<g mask="url(#mask0)">
</g>
</svg>
